<svg xmlns="http://www.w3.org/2000/svg" xmlns:xlink="http://www.w3.org/1999/xlink" width="500" zoomAndPan="magnify" viewBox="0 0 375 374.999991" height="500" preserveAspectRatio="xMidYMid meet" version="1.0"><defs><g/><clipPath id="820641d988"><path d="M 132 131 L 181 131 L 181 176 L 132 176 Z M 132 131 " clip-rule="nonzero"/></clipPath><clipPath id="5c09f5d07a"><path d="M 123.871094 140.113281 L 169.804688 126.183594 L 184.171875 173.550781 L 138.238281 187.484375 Z M 123.871094 140.113281 " clip-rule="nonzero"/></clipPath><clipPath id="7a515f56f0"><path d="M 123.871094 140.113281 L 169.804688 126.183594 L 184.171875 173.550781 L 138.238281 187.484375 Z M 123.871094 140.113281 " clip-rule="nonzero"/></clipPath><clipPath id="9e8098b879"><path d="M 138.773438 146.5 L 168.773438 146.5 L 168.773438 167.5 L 138.773438 167.5 Z M 138.773438 146.5 " clip-rule="nonzero"/></clipPath></defs><g clip-path="url(#820641d988)"><g clip-path="url(#5c09f5d07a)"><g clip-path="url(#7a515f56f0)"><path fill="#f43333" d="M 132.703125 169.167969 C 132.734375 169.261719 132.769531 169.355469 132.804688 169.449219 C 132.828125 169.511719 132.855469 169.570312 132.878906 169.632812 C 132.902344 169.6875 132.925781 169.746094 132.949219 169.800781 C 133 169.914062 133.050781 170.027344 133.105469 170.136719 C 133.109375 170.140625 133.109375 170.140625 133.109375 170.144531 C 133.769531 171.476562 134.796875 172.648438 136.15625 173.492188 C 137.046875 174.042969 138.003906 174.402344 138.976562 174.582031 C 138.980469 174.582031 138.980469 174.582031 138.984375 174.582031 C 139.113281 174.605469 139.242188 174.628906 139.371094 174.644531 C 139.390625 174.648438 139.40625 174.648438 139.425781 174.652344 C 139.539062 174.667969 139.648438 174.679688 139.761719 174.6875 C 139.800781 174.691406 139.839844 174.695312 139.875 174.699219 C 139.964844 174.703125 140.054688 174.710938 140.144531 174.714844 C 140.175781 174.714844 140.207031 174.71875 140.238281 174.71875 C 140.269531 174.71875 140.304688 174.71875 140.339844 174.71875 C 140.394531 174.71875 140.449219 174.71875 140.507812 174.71875 C 140.605469 174.71875 140.703125 174.71875 140.800781 174.714844 C 140.816406 174.714844 140.832031 174.714844 140.847656 174.710938 C 142.203125 174.65625 143.480469 174.273438 144.59375 173.632812 C 144.621094 173.617188 144.648438 173.601562 144.675781 173.582031 C 144.753906 173.539062 144.828125 173.492188 144.902344 173.445312 C 144.984375 173.394531 145.0625 173.34375 145.140625 173.289062 C 145.160156 173.277344 145.183594 173.261719 145.203125 173.246094 C 145.570312 172.996094 145.917969 172.710938 146.242188 172.398438 C 148.9375 169.953125 152.449219 168.59375 156.09375 168.710938 L 156.578125 168.722656 C 160.28125 168.839844 163.75 170.464844 166.300781 173.15625 C 167.742188 174.675781 169.761719 175.648438 172.023438 175.71875 C 176.59375 175.863281 180.414062 172.257812 180.527344 167.679688 C 180.636719 163.132812 177 159.332031 172.453125 159.234375 C 170.1875 159.1875 168.113281 160.058594 166.589844 161.515625 C 163.933594 164.046875 160.347656 165.363281 156.679688 165.246094 L 156.210938 165.230469 C 153.292969 165.140625 150.480469 164.144531 148.195312 162.382812 C 148.015625 159.507812 148.761719 156.625 150.320312 154.152344 L 150.570312 153.757812 C 152.523438 150.652344 155.621094 148.410156 159.207031 147.628906 C 161.261719 147.179688 163.148438 145.945312 164.375 144.042969 C 166.835938 140.222656 165.71875 135.078125 161.890625 132.628906 C 158.03125 130.160156 152.90625 131.308594 150.46875 135.179688 C 149.261719 137.09375 148.941406 139.3125 149.394531 141.355469 C 150.195312 144.972656 149.601562 148.761719 147.628906 151.894531 L 147.371094 152.304688 C 145.429688 155.386719 142.351562 157.53125 138.824219 158.40625 C 138.371094 158.5 137.929688 158.632812 137.507812 158.796875 C 137.5 158.800781 137.492188 158.804688 137.484375 158.808594 C 137.382812 158.847656 137.28125 158.890625 137.179688 158.933594 C 137.109375 158.964844 137.039062 159 136.964844 159.035156 C 136.929688 159.050781 136.894531 159.066406 136.855469 159.085938 C 135.585938 159.707031 134.464844 160.667969 133.628906 161.925781 C 133.625 161.929688 133.625 161.933594 133.621094 161.9375 C 133.589844 161.988281 133.554688 162.035156 133.519531 162.089844 C 133.492188 162.136719 133.464844 162.183594 133.4375 162.230469 C 133.417969 162.257812 133.402344 162.289062 133.386719 162.316406 C 133.335938 162.398438 133.289062 162.480469 133.246094 162.5625 C 133.222656 162.609375 133.199219 162.652344 133.175781 162.699219 C 133.136719 162.769531 133.101562 162.839844 133.066406 162.914062 C 133.039062 162.96875 133.011719 163.027344 132.988281 163.085938 C 132.957031 163.148438 132.929688 163.214844 132.902344 163.277344 C 132.875 163.34375 132.847656 163.410156 132.820312 163.472656 C 132.796875 163.535156 132.773438 163.59375 132.753906 163.652344 C 132.726562 163.722656 132.703125 163.792969 132.679688 163.867188 C 132.660156 163.921875 132.640625 163.980469 132.625 164.035156 C 132.601562 164.109375 132.578125 164.183594 132.558594 164.257812 C 132.542969 164.316406 132.527344 164.371094 132.511719 164.429688 C 132.492188 164.503906 132.476562 164.578125 132.457031 164.652344 C 132.445312 164.710938 132.429688 164.769531 132.417969 164.828125 C 132.40625 164.902344 132.390625 164.972656 132.378906 165.046875 C 132.367188 165.109375 132.355469 165.171875 132.347656 165.234375 C 132.335938 165.304688 132.328125 165.375 132.320312 165.441406 C 132.308594 165.511719 132.300781 165.578125 132.292969 165.648438 C 132.289062 165.714844 132.28125 165.777344 132.277344 165.84375 C 132.273438 165.917969 132.265625 165.992188 132.261719 166.066406 C 132.261719 166.09375 132.257812 166.125 132.257812 166.15625 C 132.257812 166.191406 132.257812 166.222656 132.257812 166.253906 C 132.253906 166.328125 132.253906 166.402344 132.253906 166.472656 C 132.253906 166.542969 132.253906 166.613281 132.253906 166.679688 C 132.257812 166.742188 132.257812 166.804688 132.261719 166.867188 C 132.265625 166.945312 132.269531 167.027344 132.277344 167.105469 C 132.28125 167.152344 132.285156 167.199219 132.289062 167.242188 C 132.296875 167.339844 132.308594 167.433594 132.320312 167.527344 C 132.324219 167.554688 132.328125 167.582031 132.332031 167.613281 C 132.347656 167.722656 132.363281 167.828125 132.382812 167.933594 C 132.382812 167.949219 132.386719 167.964844 132.390625 167.980469 C 132.410156 168.097656 132.4375 168.214844 132.460938 168.332031 C 132.464844 168.339844 132.464844 168.347656 132.46875 168.351562 C 132.496094 168.476562 132.527344 168.597656 132.5625 168.714844 C 132.5625 168.726562 132.566406 168.734375 132.570312 168.746094 C 132.601562 168.859375 132.636719 168.976562 132.675781 169.089844 C 132.683594 169.113281 132.695312 169.140625 132.703125 169.167969 " fill-opacity="1" fill-rule="nonzero"/></g></g></g><g clip-path="url(#9e8098b879)"><path fill="#ffffff" d="M 167.261719 150.457031 C 165.902344 147.882812 163.757812 146.523438 161.058594 146.523438 L 146.546875 146.523438 C 143.851562 146.523438 141.707031 147.882812 140.347656 150.457031 C 139.019531 152.96875 138.742188 155.996094 138.742188 158.097656 C 138.742188 161.777344 139.714844 167.253906 142.402344 167.253906 C 145.328125 167.253906 147.242188 164.878906 148.777344 162.964844 C 149.359375 162.246094 150.332031 161.035156 150.695312 161.035156 L 156.914062 161.035156 C 157.277344 161.035156 158.25 162.246094 158.832031 162.964844 C 160.367188 164.878906 162.28125 167.253906 165.207031 167.253906 C 167.894531 167.253906 168.867188 161.777344 168.867188 158.097656 C 168.867188 155.996094 168.589844 152.96875 167.261719 150.457031 Z M 165.15625 165.183594 C 163.246094 165.148438 161.761719 163.300781 160.445312 161.664062 C 159.277344 160.214844 158.269531 158.960938 156.914062 158.960938 L 150.695312 158.960938 C 149.339844 158.960938 148.332031 160.214844 147.164062 161.664062 C 145.835938 163.3125 144.335938 165.183594 142.480469 165.195312 C 141.527344 164.742188 140.105469 159.0625 141.234375 154.085938 C 141.800781 151.582031 143.183594 148.597656 146.546875 148.597656 L 161.058594 148.597656 C 164.425781 148.597656 165.808594 151.582031 166.375 154.085938 C 167.496094 159.015625 166.105469 164.636719 165.15625 165.183594 Z M 147.585938 152.742188 L 149.660156 152.742188 L 149.660156 154.816406 L 147.585938 154.816406 L 147.585938 156.890625 L 145.511719 156.890625 L 145.511719 154.816406 L 143.4375 154.816406 L 143.4375 152.742188 L 145.511719 152.742188 L 145.511719 150.671875 L 147.585938 150.671875 Z M 159.503906 152.742188 C 159.503906 153.601562 158.808594 154.296875 157.949219 154.296875 C 157.09375 154.296875 156.394531 153.601562 156.394531 152.742188 C 156.394531 151.886719 157.09375 151.1875 157.949219 151.1875 C 158.808594 151.1875 159.503906 151.886719 159.503906 152.742188 Z M 163.652344 154.816406 C 163.652344 155.675781 162.957031 156.371094 162.097656 156.371094 C 161.238281 156.371094 160.542969 155.675781 160.542969 154.816406 C 160.542969 153.957031 161.238281 153.261719 162.097656 153.261719 C 162.957031 153.261719 163.652344 153.957031 163.652344 154.816406 Z M 163.652344 154.816406 " fill-opacity="1" fill-rule="nonzero"/></g><g fill="#f43333" fill-opacity="1"><g transform="translate(183.745014, 169.19015)"><g><path d="M 4.019531 -3.894531 L 5.65625 -3.894531 L 5.65625 -2.613281 L 3.027344 -2.613281 L 3.027344 -8.191406 L 8.28125 -8.191406 C 8.28125 -9.640625 7.109375 -10.816406 5.65625 -10.816406 L 3.027344 -10.816406 C 1.574219 -10.816406 0.417969 -9.640625 0.417969 -8.191406 L 0.417969 -2.613281 C 0.417969 -1.160156 1.574219 0 3.027344 0 L 5.65625 0 C 7.109375 0 8.28125 -1.160156 8.28125 -2.613281 L 8.28125 -6.519531 L 4.019531 -6.519531 Z M 4.019531 -3.894531 "/></g></g></g><g fill="#f43333" fill-opacity="1"><g transform="translate(193.958352, 169.19015)"><g><path d="M 5.453125 -10.816406 L 0.539062 -10.816406 L 0.539062 0 L 3.152344 0 L 3.152344 -3.925781 L 5.453125 -3.925781 L 5.453125 0 L 8.066406 0 L 8.066406 -8.191406 C 8.066406 -9.640625 6.890625 -10.816406 5.453125 -10.816406 Z M 3.152344 -6.550781 L 3.152344 -8.191406 L 5.453125 -8.191406 L 5.453125 -6.550781 Z M 3.152344 -6.550781 "/></g></g></g><g fill="#f43333" fill-opacity="1"><g transform="translate(204.063534, 169.19015)"><g><path d="M 7.742188 -10.816406 L 5.453125 -3.925781 L 3.988281 -8.328125 C 3.617188 -9.410156 2.78125 -10.246094 1.730469 -10.601562 C 1.4375 -10.738281 1.113281 -10.816406 0.773438 -10.816406 L 0.539062 -10.816406 L 0.539062 0 L 3.152344 0 L 3.152344 -2.9375 L 4.140625 0 L 6.769531 0 L 7.742188 -2.9375 L 7.742188 0 L 10.367188 0 L 10.367188 -10.816406 Z M 7.742188 -10.816406 "/></g></g></g><g fill="#f43333" fill-opacity="1"><g transform="translate(216.532704, 169.19015)"><g><path d="M 2.226562 -10.816406 C 1.265625 -10.816406 0.511719 -10.042969 0.511719 -9.085938 L 0.511719 0 L 3.121094 0 L 3.121094 -10.816406 Z M 2.226562 -10.816406 "/></g></g></g><g fill="#f43333" fill-opacity="1"><g transform="translate(221.755403, 169.19015)"><g><path d="M 5.453125 -10.816406 L 5.453125 -5.765625 L 4.234375 -8.421875 C 3.585938 -9.875 2.132812 -10.816406 0.539062 -10.816406 L 0.539062 0 L 3.152344 0 L 3.152344 -5.039062 L 5.453125 0 L 8.066406 0 L 8.066406 -10.816406 Z M 5.453125 -10.816406 "/></g></g></g><g fill="#f43333" fill-opacity="1"><g transform="translate(231.922388, 169.19015)"><g><path d="M 4.019531 -3.894531 L 5.65625 -3.894531 L 5.65625 -2.613281 L 3.027344 -2.613281 L 3.027344 -8.191406 L 8.28125 -8.191406 C 8.28125 -9.640625 7.109375 -10.816406 5.65625 -10.816406 L 3.027344 -10.816406 C 1.574219 -10.816406 0.417969 -9.640625 0.417969 -8.191406 L 0.417969 -2.613281 C 0.417969 -1.160156 1.574219 0 3.027344 0 L 5.65625 0 C 7.109375 0 8.28125 -1.160156 8.28125 -2.613281 L 8.28125 -6.519531 L 4.019531 -6.519531 Z M 4.019531 -3.894531 "/></g></g></g><g fill="#ffffff" fill-opacity="1"><g transform="translate(185.262279, 151.97224)"><g><path d="M 6.015625 -11.46875 C 6.054688 -11.613281 6.195312 -11.742188 6.4375 -11.859375 C 6.6875 -11.972656 6.914062 -12.03125 7.125 -12.03125 C 7.238281 -12.03125 7.328125 -12.003906 7.390625 -11.953125 C 7.453125 -11.910156 7.46875 -11.847656 7.4375 -11.765625 L 6.640625 -8.953125 C 6.585938 -8.796875 6.441406 -8.65625 6.203125 -8.53125 C 5.972656 -8.414062 5.753906 -8.359375 5.546875 -8.359375 C 5.421875 -8.359375 5.328125 -8.382812 5.265625 -8.4375 C 5.210938 -8.488281 5.195312 -8.5625 5.21875 -8.65625 C 5.28125 -8.976562 5.3125 -9.269531 5.3125 -9.53125 C 5.3125 -10.0625 5.191406 -10.347656 4.953125 -10.390625 C 4.847656 -10.421875 4.710938 -10.328125 4.546875 -10.109375 C 4.390625 -9.890625 4.207031 -9.625 4 -9.3125 C 3.300781 -8.289062 2.757812 -7.097656 2.375 -5.734375 C 2.238281 -5.265625 2.132812 -4.84375 2.0625 -4.46875 C 1.988281 -4.101562 1.953125 -3.738281 1.953125 -3.375 C 1.953125 -3.007812 2 -2.679688 2.09375 -2.390625 C 2.1875 -2.097656 2.335938 -1.835938 2.546875 -1.609375 C 2.765625 -1.390625 3.007812 -1.28125 3.28125 -1.28125 C 3.550781 -1.28125 3.8125 -1.367188 4.0625 -1.546875 C 4.3125 -1.734375 4.570312 -1.976562 4.84375 -2.28125 L 4.765625 -2.421875 C 4.734375 -2.472656 4.71875 -2.515625 4.71875 -2.546875 C 4.71875 -2.691406 4.828125 -2.820312 5.046875 -2.9375 C 5.273438 -3.0625 5.5 -3.125 5.71875 -3.125 C 5.9375 -3.125 6.09375 -3.0625 6.1875 -2.9375 L 6.359375 -2.65625 C 6.367188 -2.644531 6.375 -2.617188 6.375 -2.578125 C 6.375 -2.535156 6.359375 -2.488281 6.328125 -2.4375 C 6.304688 -2.382812 6.28125 -2.335938 6.25 -2.296875 C 5.8125 -1.742188 5.28125 -1.265625 4.65625 -0.859375 C 4.039062 -0.453125 3.425781 -0.25 2.8125 -0.25 C 2.34375 -0.25 1.910156 -0.390625 1.515625 -0.671875 C 0.828125 -1.160156 0.484375 -1.9375 0.484375 -3 C 0.484375 -3.65625 0.628906 -4.488281 0.921875 -5.5 C 1.234375 -6.632812 1.65625 -7.703125 2.1875 -8.703125 C 2.726562 -9.710938 3.378906 -10.46875 4.140625 -10.96875 C 4.578125 -11.25 5 -11.390625 5.40625 -11.390625 C 5.59375 -11.390625 5.773438 -11.347656 5.953125 -11.265625 Z M 6.015625 -11.46875 "/></g></g></g><g fill="#ffffff" fill-opacity="1"><g transform="translate(195.890584, 151.97224)"><g><path d="M 7.21875 -11.0625 C 7.28125 -11.113281 7.378906 -11.15625 7.515625 -11.1875 C 7.648438 -11.226562 7.785156 -11.25 7.921875 -11.25 C 8.066406 -11.25 8.179688 -11.226562 8.265625 -11.1875 C 8.359375 -11.15625 8.40625 -11.101562 8.40625 -11.03125 C 8.40625 -10.96875 8.363281 -10.890625 8.28125 -10.796875 L 2.8125 -5.484375 L 2.640625 -5.328125 C 3.941406 -6.003906 4.957031 -6.34375 5.6875 -6.34375 C 6.34375 -6.34375 6.75 -6.0625 6.90625 -5.5 C 6.945312 -5.289062 6.96875 -5.101562 6.96875 -4.9375 C 6.96875 -4.695312 6.941406 -4.453125 6.890625 -4.203125 C 6.835938 -3.960938 6.757812 -3.679688 6.65625 -3.359375 C 6.53125 -2.941406 6.441406 -2.628906 6.390625 -2.421875 C 6.347656 -2.210938 6.328125 -1.988281 6.328125 -1.75 C 6.328125 -1.664062 6.335938 -1.550781 6.359375 -1.40625 C 6.492188 -1.394531 6.601562 -1.363281 6.6875 -1.3125 C 6.78125 -1.269531 6.828125 -1.210938 6.828125 -1.140625 C 6.828125 -1.035156 6.738281 -0.910156 6.5625 -0.765625 L 6.21875 -0.46875 C 6.144531 -0.40625 6.023438 -0.34375 5.859375 -0.28125 C 5.691406 -0.21875 5.535156 -0.1875 5.390625 -0.1875 C 5.179688 -0.1875 5.039062 -0.265625 4.96875 -0.421875 C 4.875 -0.703125 4.828125 -1.015625 4.828125 -1.359375 C 4.828125 -1.628906 4.847656 -1.898438 4.890625 -2.171875 C 4.941406 -2.441406 5.019531 -2.78125 5.125 -3.1875 C 5.257812 -3.644531 5.347656 -4.039062 5.390625 -4.375 C 5.421875 -4.625 5.4375 -4.765625 5.4375 -4.796875 C 5.4375 -4.953125 5.40625 -5.070312 5.34375 -5.15625 C 5.28125 -5.25 5.171875 -5.296875 5.015625 -5.296875 C 4.828125 -5.296875 4.609375 -5.234375 4.359375 -5.109375 C 4.109375 -4.992188 3.953125 -4.921875 3.890625 -4.890625 C 3.492188 -4.722656 2.984375 -4.472656 2.359375 -4.140625 C 2.128906 -3.015625 1.890625 -1.953125 1.640625 -0.953125 C 1.597656 -0.785156 1.453125 -0.640625 1.203125 -0.515625 C 0.953125 -0.398438 0.71875 -0.34375 0.5 -0.34375 C 0.375 -0.34375 0.273438 -0.367188 0.203125 -0.421875 C 0.128906 -0.472656 0.109375 -0.550781 0.140625 -0.65625 C 0.171875 -0.8125 0.191406 -0.914062 0.203125 -0.96875 C 0.265625 -1.207031 0.359375 -1.609375 0.484375 -2.171875 C 0.609375 -2.742188 0.71875 -3.253906 0.8125 -3.703125 C 0.65625 -3.765625 0.578125 -3.859375 0.578125 -3.984375 C 0.578125 -4.117188 0.703125 -4.257812 0.953125 -4.40625 C 1.429688 -6.875 1.671875 -9.101562 1.671875 -11.09375 C 1.671875 -11.257812 1.789062 -11.40625 2.03125 -11.53125 C 2.269531 -11.664062 2.503906 -11.734375 2.734375 -11.734375 C 2.859375 -11.734375 2.957031 -11.707031 3.03125 -11.65625 C 3.113281 -11.601562 3.15625 -11.523438 3.15625 -11.421875 C 3.164062 -10.015625 3.0625 -8.515625 2.84375 -6.921875 C 4.15625 -8.242188 5.613281 -9.625 7.21875 -11.0625 Z M 7.21875 -11.0625 "/></g></g></g><g fill="#ffffff" fill-opacity="1"><g transform="translate(207.779684, 151.97224)"><g><path d="M 9.140625 -11.390625 C 9.347656 -11.359375 9.453125 -11.28125 9.453125 -11.15625 C 9.453125 -11.0625 9.382812 -10.957031 9.25 -10.84375 C 9.125 -10.726562 8.972656 -10.632812 8.796875 -10.5625 C 8.628906 -10.488281 8.488281 -10.460938 8.375 -10.484375 C 7.925781 -10.546875 7.453125 -10.578125 6.953125 -10.578125 C 6.078125 -10.578125 5.078125 -10.453125 3.953125 -10.203125 C 3.609375 -9.054688 3.269531 -7.800781 2.9375 -6.4375 C 4.007812 -6.675781 4.953125 -6.796875 5.765625 -6.796875 C 5.992188 -6.796875 6.171875 -6.789062 6.296875 -6.78125 C 6.484375 -6.769531 6.578125 -6.679688 6.578125 -6.515625 C 6.578125 -6.328125 6.476562 -6.175781 6.28125 -6.0625 C 6.082031 -5.957031 5.878906 -5.898438 5.671875 -5.890625 C 4.679688 -5.804688 3.695312 -5.664062 2.71875 -5.46875 C 2.445312 -4.34375 2.191406 -3.113281 1.953125 -1.78125 C 2.972656 -1.832031 3.894531 -1.859375 4.71875 -1.859375 C 5.800781 -1.859375 6.800781 -1.804688 7.71875 -1.703125 C 7.914062 -1.671875 8.015625 -1.578125 8.015625 -1.421875 C 8.015625 -1.335938 7.984375 -1.25 7.921875 -1.15625 C 7.828125 -1.007812 7.6875 -0.90625 7.5 -0.84375 C 7.3125 -0.789062 7.125 -0.773438 6.9375 -0.796875 C 6.40625 -0.835938 5.765625 -0.859375 5.015625 -0.859375 C 4.398438 -0.859375 3.773438 -0.84375 3.140625 -0.8125 C 2.515625 -0.800781 2.046875 -0.796875 1.734375 -0.796875 C 1.640625 -0.660156 1.484375 -0.546875 1.265625 -0.453125 C 1.046875 -0.359375 0.847656 -0.3125 0.671875 -0.3125 C 0.523438 -0.3125 0.414062 -0.335938 0.34375 -0.390625 C 0.269531 -0.453125 0.242188 -0.535156 0.265625 -0.640625 C 0.265625 -0.660156 0.273438 -0.710938 0.296875 -0.796875 L 0.265625 -0.796875 C -0.0351562 -0.796875 -0.1875 -0.875 -0.1875 -1.03125 C -0.1875 -1.125 -0.125 -1.226562 0 -1.34375 C 0.125 -1.46875 0.269531 -1.570312 0.4375 -1.65625 C 0.726562 -3.207031 1.023438 -4.644531 1.328125 -5.96875 C 1.628906 -7.300781 1.984375 -8.582031 2.390625 -9.8125 L 2.28125 -9.796875 C 2.175781 -9.796875 2.09375 -9.820312 2.03125 -9.875 C 1.96875 -9.9375 1.9375 -10.007812 1.9375 -10.09375 C 1.9375 -10.195312 1.984375 -10.304688 2.078125 -10.421875 C 2.171875 -10.535156 2.296875 -10.617188 2.453125 -10.671875 L 2.71875 -10.75 L 2.78125 -10.9375 C 2.832031 -11.070312 2.957031 -11.1875 3.15625 -11.28125 C 3.363281 -11.382812 3.566406 -11.4375 3.765625 -11.4375 C 4.035156 -11.4375 4.1875 -11.347656 4.21875 -11.171875 C 5.3125 -11.429688 6.332031 -11.5625 7.28125 -11.5625 C 7.90625 -11.5625 8.523438 -11.503906 9.140625 -11.390625 Z M 9.140625 -11.390625 "/></g></g></g><g fill="#ffffff" fill-opacity="1"><g transform="translate(220.015151, 151.97224)"><g><path d="M 6.015625 -11.46875 C 6.054688 -11.613281 6.195312 -11.742188 6.4375 -11.859375 C 6.6875 -11.972656 6.914062 -12.03125 7.125 -12.03125 C 7.238281 -12.03125 7.328125 -12.003906 7.390625 -11.953125 C 7.453125 -11.910156 7.46875 -11.847656 7.4375 -11.765625 L 6.640625 -8.953125 C 6.585938 -8.796875 6.441406 -8.65625 6.203125 -8.53125 C 5.972656 -8.414062 5.753906 -8.359375 5.546875 -8.359375 C 5.421875 -8.359375 5.328125 -8.382812 5.265625 -8.4375 C 5.210938 -8.488281 5.195312 -8.5625 5.21875 -8.65625 C 5.28125 -8.976562 5.3125 -9.269531 5.3125 -9.53125 C 5.3125 -10.0625 5.191406 -10.347656 4.953125 -10.390625 C 4.847656 -10.421875 4.710938 -10.328125 4.546875 -10.109375 C 4.390625 -9.890625 4.207031 -9.625 4 -9.3125 C 3.300781 -8.289062 2.757812 -7.097656 2.375 -5.734375 C 2.238281 -5.265625 2.132812 -4.84375 2.0625 -4.46875 C 1.988281 -4.101562 1.953125 -3.738281 1.953125 -3.375 C 1.953125 -3.007812 2 -2.679688 2.09375 -2.390625 C 2.1875 -2.097656 2.335938 -1.835938 2.546875 -1.609375 C 2.765625 -1.390625 3.007812 -1.28125 3.28125 -1.28125 C 3.550781 -1.28125 3.8125 -1.367188 4.0625 -1.546875 C 4.3125 -1.734375 4.570312 -1.976562 4.84375 -2.28125 L 4.765625 -2.421875 C 4.734375 -2.472656 4.71875 -2.515625 4.71875 -2.546875 C 4.71875 -2.691406 4.828125 -2.820312 5.046875 -2.9375 C 5.273438 -3.0625 5.5 -3.125 5.71875 -3.125 C 5.9375 -3.125 6.09375 -3.0625 6.1875 -2.9375 L 6.359375 -2.65625 C 6.367188 -2.644531 6.375 -2.617188 6.375 -2.578125 C 6.375 -2.535156 6.359375 -2.488281 6.328125 -2.4375 C 6.304688 -2.382812 6.28125 -2.335938 6.25 -2.296875 C 5.8125 -1.742188 5.28125 -1.265625 4.65625 -0.859375 C 4.039062 -0.453125 3.425781 -0.25 2.8125 -0.25 C 2.34375 -0.25 1.910156 -0.390625 1.515625 -0.671875 C 0.828125 -1.160156 0.484375 -1.9375 0.484375 -3 C 0.484375 -3.65625 0.628906 -4.488281 0.921875 -5.5 C 1.234375 -6.632812 1.65625 -7.703125 2.1875 -8.703125 C 2.726562 -9.710938 3.378906 -10.46875 4.140625 -10.96875 C 4.578125 -11.25 5 -11.390625 5.40625 -11.390625 C 5.59375 -11.390625 5.773438 -11.347656 5.953125 -11.265625 Z M 6.015625 -11.46875 "/></g></g></g><g fill="#ffffff" fill-opacity="1"><g transform="translate(230.643454, 151.97224)"><g><path d="M 7.21875 -11.0625 C 7.28125 -11.113281 7.378906 -11.15625 7.515625 -11.1875 C 7.648438 -11.226562 7.785156 -11.25 7.921875 -11.25 C 8.066406 -11.25 8.179688 -11.226562 8.265625 -11.1875 C 8.359375 -11.15625 8.40625 -11.101562 8.40625 -11.03125 C 8.40625 -10.96875 8.363281 -10.890625 8.28125 -10.796875 L 2.8125 -5.484375 L 2.640625 -5.328125 C 3.941406 -6.003906 4.957031 -6.34375 5.6875 -6.34375 C 6.34375 -6.34375 6.75 -6.0625 6.90625 -5.5 C 6.945312 -5.289062 6.96875 -5.101562 6.96875 -4.9375 C 6.96875 -4.695312 6.941406 -4.453125 6.890625 -4.203125 C 6.835938 -3.960938 6.757812 -3.679688 6.65625 -3.359375 C 6.53125 -2.941406 6.441406 -2.628906 6.390625 -2.421875 C 6.347656 -2.210938 6.328125 -1.988281 6.328125 -1.75 C 6.328125 -1.664062 6.335938 -1.550781 6.359375 -1.40625 C 6.492188 -1.394531 6.601562 -1.363281 6.6875 -1.3125 C 6.78125 -1.269531 6.828125 -1.210938 6.828125 -1.140625 C 6.828125 -1.035156 6.738281 -0.910156 6.5625 -0.765625 L 6.21875 -0.46875 C 6.144531 -0.40625 6.023438 -0.34375 5.859375 -0.28125 C 5.691406 -0.21875 5.535156 -0.1875 5.390625 -0.1875 C 5.179688 -0.1875 5.039062 -0.265625 4.96875 -0.421875 C 4.875 -0.703125 4.828125 -1.015625 4.828125 -1.359375 C 4.828125 -1.628906 4.847656 -1.898438 4.890625 -2.171875 C 4.941406 -2.441406 5.019531 -2.78125 5.125 -3.1875 C 5.257812 -3.644531 5.347656 -4.039062 5.390625 -4.375 C 5.421875 -4.625 5.4375 -4.765625 5.4375 -4.796875 C 5.4375 -4.953125 5.40625 -5.070312 5.34375 -5.15625 C 5.28125 -5.25 5.171875 -5.296875 5.015625 -5.296875 C 4.828125 -5.296875 4.609375 -5.234375 4.359375 -5.109375 C 4.109375 -4.992188 3.953125 -4.921875 3.890625 -4.890625 C 3.492188 -4.722656 2.984375 -4.472656 2.359375 -4.140625 C 2.128906 -3.015625 1.890625 -1.953125 1.640625 -0.953125 C 1.597656 -0.785156 1.453125 -0.640625 1.203125 -0.515625 C 0.953125 -0.398438 0.71875 -0.34375 0.5 -0.34375 C 0.375 -0.34375 0.273438 -0.367188 0.203125 -0.421875 C 0.128906 -0.472656 0.109375 -0.550781 0.140625 -0.65625 C 0.171875 -0.8125 0.191406 -0.914062 0.203125 -0.96875 C 0.265625 -1.207031 0.359375 -1.609375 0.484375 -2.171875 C 0.609375 -2.742188 0.71875 -3.253906 0.8125 -3.703125 C 0.65625 -3.765625 0.578125 -3.859375 0.578125 -3.984375 C 0.578125 -4.117188 0.703125 -4.257812 0.953125 -4.40625 C 1.429688 -6.875 1.671875 -9.101562 1.671875 -11.09375 C 1.671875 -11.257812 1.789062 -11.40625 2.03125 -11.53125 C 2.269531 -11.664062 2.503906 -11.734375 2.734375 -11.734375 C 2.859375 -11.734375 2.957031 -11.707031 3.03125 -11.65625 C 3.113281 -11.601562 3.15625 -11.523438 3.15625 -11.421875 C 3.164062 -10.015625 3.0625 -8.515625 2.84375 -6.921875 C 4.15625 -8.242188 5.613281 -9.625 7.21875 -11.0625 Z M 7.21875 -11.0625 "/></g></g></g></svg>